<svg width="16" height="17" viewBox="0 0 16 17" fill="none" xmlns="http://www.w3.org/2000/svg">
<path d="M9.3905 6.71391C9.69273 7.06222 10.2201 7.09958 10.5684 6.79734C10.9167 6.49511 10.9541 5.96774 10.6519 5.61943L9.3905 6.71391ZM6.60952 10.2861C6.30729 9.93778 5.77991 9.90042 5.4316 10.2027C5.08329 10.5049 5.04593 11.0323 5.34816 11.3806L6.60952 10.2861ZM8.835 4.61111C8.835 4.14995 8.46116 3.77611 8 3.77611C7.53884 3.77611 7.165 4.14995 7.165 4.61111H8.835ZM7.165 12.3889C7.16499 12.85 7.53883 13.2239 7.99998 13.2239C8.46114 13.2239 8.83499 12.8501 8.835 12.3889L7.165 12.3889ZM14.165 8.5C14.165 11.9048 11.4048 14.665 8 14.665V16.335C12.3272 16.335 15.835 12.8272 15.835 8.5H14.165ZM8 14.665C4.59516 14.665 1.835 11.9048 1.835 8.5H0.165C0.165 12.8272 3.67285 16.335 8 16.335V14.665ZM1.835 8.5C1.835 5.09516 4.59516 2.335 8 2.335V0.665C3.67285 0.665 0.165 4.17285 0.165 8.5H1.835ZM8 2.335C11.4048 2.335 14.165 5.09516 14.165 8.5H15.835C15.835 4.17285 12.3272 0.665 8 0.665V2.335ZM8 7.665C7.49752 7.665 7.08039 7.52771 6.81326 7.34963C6.54029 7.16765 6.50167 7.00795 6.50167 6.94444H4.83167C4.83167 7.74005 5.31537 8.35813 5.88691 8.73915C6.46428 9.12406 7.21381 9.335 8 9.335V7.665ZM6.50167 6.94444C6.50167 6.88094 6.54029 6.72124 6.81326 6.53926C7.08039 6.36118 7.49752 6.22389 8 6.22389V4.55389C7.21381 4.55389 6.46428 4.76482 5.88691 5.14974C5.31537 5.53076 4.83167 6.14884 4.83167 6.94444H6.50167ZM8 6.22389C8.69111 6.22389 9.18611 6.47835 9.3905 6.71391L10.6519 5.61943C10.0494 4.92507 9.03621 4.55389 8 4.55389V6.22389ZM8 9.335C8.50248 9.335 8.91962 9.47229 9.18675 9.65038C9.45973 9.83236 9.49835 9.99206 9.49835 10.0556H11.1684C11.1684 9.25995 10.6846 8.64187 10.1131 8.26085C9.53572 7.87594 8.78619 7.665 8 7.665V9.335ZM7.165 4.61111V5.38889H8.835V4.61111H7.165ZM7.16502 11.6111L7.165 12.3889L8.835 12.3889L8.83502 11.6111L7.16502 11.6111ZM8.00002 10.7761C7.30891 10.7761 6.8139 10.5216 6.60952 10.2861L5.34816 11.3806C5.95066 12.0749 6.96382 12.4461 8.00001 12.4461L8.00002 10.7761ZM9.49835 10.0556C9.49835 10.1191 9.45972 10.2788 9.18676 10.4607C8.91963 10.6388 8.50249 10.7761 8.00002 10.7761V12.4461C8.78621 12.4461 9.53574 12.2352 10.1131 11.8503C10.6846 11.4692 11.1684 10.8512 11.1684 10.0556H9.49835ZM7.165 5.38889L7.16502 11.6111L8.83502 11.6111L8.835 5.38889L7.165 5.38889Z" fill="#171717"/>
</svg>
