<svg width="14" height="16" viewBox="0 0 14 16" fill="none" xmlns="http://www.w3.org/2000/svg">
<path d="M11.1007 11.3995C10.5075 11.9927 9.34867 13.1515 8.41384 14.0863C7.63279 14.8674 6.36738 14.8672 5.58633 14.0862C4.66878 13.1686 3.53036 12.0302 2.89966 11.3995C0.63501 9.13485 0.63501 5.46313 2.89966 3.19848C5.1643 0.933838 8.83602 0.933838 11.1007 3.19848C13.3653 5.46313 13.3653 9.13485 11.1007 11.3995Z" stroke="#171717" stroke-width="1.67" stroke-linecap="round" stroke-linejoin="round"/>
<path d="M9.17478 7.29899C9.17478 8.5 8.20117 9.47361 7.00016 9.47361C5.79915 9.47361 4.82554 8.5 4.82554 7.29899C4.82554 6.09798 5.79915 5.12437 7.00016 5.12437C8.20117 5.12437 9.17478 6.09798 9.17478 7.29899Z" stroke="#171717" stroke-width="1.67" stroke-linecap="round" stroke-linejoin="round"/>
</svg>
