<svg width="16" height="17" viewBox="0 0 16 17" fill="none" xmlns="http://www.w3.org/2000/svg">
<path d="M10.3333 4.61111C11.1924 4.61111 11.8889 5.30756 11.8889 6.16667M15 6.16667C15 8.744 12.9107 10.8333 10.3333 10.8333C9.86187 10.8333 9.40673 10.7634 8.97772 10.6334L7.22222 12.3889H5.66667V13.9444H4.11111V15.5H1.77778C1.34822 15.5 1 15.1518 1 14.7222V12.7111C1 12.5048 1.08194 12.3069 1.22781 12.1611L5.86661 7.52228C5.73658 7.09327 5.66667 6.63813 5.66667 6.16667C5.66667 3.58934 7.756 1.5 10.3333 1.5C12.9107 1.5 15 3.58934 15 6.16667Z" stroke="#171717" stroke-width="1.67" stroke-linecap="round" stroke-linejoin="round"/>
</svg>
