<svg width="294" height="413" viewBox="0 0 294 413" fill="none" xmlns="http://www.w3.org/2000/svg">
<path d="M171.196 70.7348C195.848 70.7348 221.413 75.2983 243.783 85.3381C265.696 95.8342 294 116.827 294 143.295C294 163.831 279.848 179.347 254.283 178.891C273.913 123.672 228.261 78.0365 171.196 78.0365C104.087 78.0365 48.8478 138.732 39.2609 217.681C52.5 200.339 72.587 194.863 91.3043 195.319C125.543 195.319 155.674 219.05 187.63 223.157C204.065 224.982 223.696 222.244 227.804 203.077C238.304 244.149 208.174 263.772 171.196 258.296C132.848 251.907 96.7826 215.855 64.3696 215.855C47.4783 216.312 37.8913 224.982 37.8913 241.867C38.3478 304.844 67.1087 359.607 109.109 386.988C173.935 428.972 251.543 394.746 294 336.789V375.123C262.957 399.766 219.13 413 171.196 413C77.1522 413 0 336.789 0 241.867C0 147.402 76.6956 70.7348 171.196 70.7348ZM171.196 50.6552L185.804 0H218.217L178.5 50.6552H171.196Z" fill="black"/>
</svg>
